<svg width="128" height="128" viewBox="0 0 128 128" fill="none" xmlns="http://www.w3.org/2000/svg">
<path d="M93.44 6.3999H34.56C19.0077 6.3999 6.40002 19.0076 6.40002 34.5599V93.4399C6.40002 108.992 19.0077 121.6 34.56 121.6H93.44C108.992 121.6 121.6 108.992 121.6 93.4399V34.5599C121.6 19.0076 108.992 6.3999 93.44 6.3999Z" stroke="#E5E5E7" stroke-width="6"/>
<path d="M25.6 40.9602L35.84 51.2002L53.76 30.7202" stroke="#007AFF" stroke-width="8" stroke-linecap="round" stroke-linejoin="round"/>
<path d="M99.5 38H69.5C68.1193 38 67 39.7909 67 42C67 44.2091 68.1193 46 69.5 46H99.5C100.881 46 102 44.2091 102 42C102 39.7909 100.881 38 99.5 38Z" fill="#D1D1D6"/>
<path d="M25.6 66.5598L35.84 76.7998L53.76 56.3198" stroke="#FF3B30" stroke-width="8" stroke-linecap="round" stroke-linejoin="round"/>
<path d="M99.5 64H69.5C68.1193 64 67 65.7909 67 68C67 70.2091 68.1193 72 69.5 72H99.5C100.881 72 102 70.2091 102 68C102 65.7909 100.881 64 99.5 64Z" fill="#D1D1D6"/>
<path d="M25.6 92.1599L35.84 102.4L53.76 81.9199" stroke="#FF9500" stroke-width="8" stroke-linecap="round" stroke-linejoin="round"/>
<path d="M99.5 90H69.5C68.1193 90 67 91.7909 67 94C67 96.2091 68.1193 98 69.5 98H99.5C100.881 98 102 96.2091 102 94C102 91.7909 100.881 90 99.5 90Z" fill="#D1D1D6"/>
</svg>
